<?xml version="1.0" encoding="utf-8"?>
<!-- Generator: Adobe Illustrator 25.4.1, SVG Export Plug-In . SVG Version: 6.00 Build 0)  -->
<svg version="1.1" id="レイヤー_1" xmlns="http://www.w3.org/2000/svg" xmlns:xlink="http://www.w3.org/1999/xlink" x="0px"
	 y="0px" viewBox="0 0 1000 1000" style="enable-background:new 0 0 1000 1000;" xml:space="preserve">
<rect style="fill:#282425;" width="1000" height="1000"/>
<g>
	<path style="fill:#C6AF80;" d="M212.931,55.078L49.415,438.477h103.084l25.636-63.985h156.219l25.842,63.985H468.36L303.83,55.078
		H212.931z M211.705,290.704l44.226-110.386l44.582,110.386H211.705z"/>
	<path style="fill:#C6AF80;" d="M751.207,375.508c-7.111,0-12.276-2.364-15.489-7.11c-3.222-4.737-4.826-12.354-4.826-22.852v-57.89
		c0.334-37.578-9.312-66.944-28.944-88.106c-19.637-21.154-49.599-31.739-89.882-31.739c-20.654,0-39.95,2.794-57.891,8.38
		c-17.947,5.586-33.347,13.124-46.213,22.598l11.175,75.155c10.155-7.784,21.914-13.965,35.291-18.535
		c13.371-4.57,26.995-6.855,40.878-6.855c12.865,0,24.377,3.301,34.532,9.902c8.788,5.712,13.635,16.695,14.569,32.918
		c-5.822-1.784-12.003-3.302-18.63-4.48c-10.497-1.857-21.163-2.794-31.994-2.794c-15.573,0-31.482,2.373-47.731,7.11
		c-16.251,4.745-30.306,13.378-42.149,25.899c-11.856,12.529-17.775,29.628-17.775,51.289c0,27.763,9.221,47.735,27.674,59.922
		c18.447,12.187,40.878,18.282,67.287,18.282c20.988,0,38.418-3.896,52.304-11.68c10.528-5.904,19.196-12.983,26.024-21.228
		c3.485,7.625,7.823,13.972,13.078,18.942c9.474,8.967,24.883,13.624,46.21,13.966c13.204,0,25.219-2.207,36.055-6.602l8.126-66.015
		C760.854,374.999,756.959,375.508,751.207,375.508z M631.361,372.714c-7.45,5.254-15.234,7.871-23.357,7.871
		c-6.777,0-12.443-1.523-17.013-4.57s-6.855-7.442-6.855-13.203c0-6.427,2.961-11.338,8.887-14.726
		c5.919-3.38,14.803-5.077,26.659-5.077c5.752,0,11.934,0.34,18.536,1.015c2.118,0.219,4.058,0.461,5.916,0.713l-0.075,7.92v4.998
		C640.699,364.064,636.48,369.108,631.361,372.714z"/>
</g>
<g>
	<path style="fill:#C6AF80;" d="M469.404,947.759H359.729l-0.172-0.431l-25.669-63.554H178.601l-25.636,63.984H48.374
		l164.102-384.776h91.809l0.178,0.417L469.404,947.759z M360.66,946.381h106.655l-163.941-382.02h-89.99L50.459,946.381h101.574
		l25.636-63.984h157.15l0.172,0.431L360.66,946.381z M301.534,799.987h-90.845l0.377-0.945l44.864-111.976L301.534,799.987z
		 M212.723,798.609h86.771l-43.559-107.85L212.723,798.609z"/>
	<path style="fill:#C6AF80;" d="M718.705,955.885c-21.419-0.343-37.124-5.106-46.684-14.154c-5.006-4.732-9.299-10.841-12.771-18.17
		c-6.758,7.933-15.336,14.846-25.521,20.557c-13.928,7.808-31.641,11.767-52.64,11.767c-26.422,0-49.189-6.189-67.666-18.396
		c-18.569-12.262-27.983-32.617-27.983-60.496c0-21.751,6.042-39.166,17.963-51.763c11.869-12.55,26.156-21.327,42.455-26.086
		c16.246-4.737,32.37-7.138,47.924-7.138c10.793,0,21.596,0.943,32.115,2.805c6.029,1.071,11.999,2.487,17.758,4.211
		c-1.055-15.398-5.827-25.957-14.195-31.393c-9.993-6.496-21.486-9.79-34.155-9.79c-13.74,0-27.418,2.294-40.655,6.818
		c-13.229,4.52-25.036,10.721-35.094,18.43l-0.929,0.712l-11.409-76.723l0.334-0.245c12.881-9.486,28.497-17.123,46.417-22.701
		c17.925-5.581,37.471-8.411,58.096-8.411c40.289,0,70.7,10.752,90.388,31.96c19.661,21.194,29.461,50.997,29.127,88.581v57.883
		c0,10.315,1.583,17.873,4.707,22.464c3.06,4.518,8.077,6.808,14.919,6.808c5.617,0,9.442-0.489,11.372-1.451l1.147-0.573
		l-8.33,67.691l-0.377,0.152C744.137,953.647,731.917,955.885,718.705,955.885z M659.587,921.003l0.458,0.999
		c3.477,7.607,7.824,13.908,12.924,18.727c9.302,8.805,24.694,13.44,45.747,13.778c12.871,0,24.786-2.153,35.409-6.4l7.934-64.45
		c-2.288,0.763-5.859,1.134-10.852,1.134c-7.326,0-12.728-2.494-16.06-7.412c-3.281-4.823-4.944-12.642-4.944-23.238v-57.89
		c0.331-37.226-9.345-66.71-28.761-87.637c-19.414-20.914-49.486-31.519-89.376-31.519c-20.485,0-39.893,2.809-57.686,8.349
		c-17.616,5.484-32.981,12.969-45.674,22.249l10.944,73.594c9.972-7.474,21.591-13.506,34.556-17.936
		c13.382-4.573,27.211-6.892,41.102-6.892c12.941,0,24.686,3.368,34.909,10.014c8.93,5.804,13.936,17.06,14.881,33.456l0.057,0.988
		l-0.947-0.289c-5.999-1.84-12.241-3.34-18.55-4.461c-10.438-1.846-21.16-2.783-31.872-2.783c-15.425,0-31.418,2.383-47.537,7.083
		c-16.065,4.69-30.142,13.34-41.842,25.71c-11.67,12.331-17.586,29.429-17.586,50.815c0,27.387,9.208,47.355,27.364,59.347
		c18.248,12.055,40.76,18.167,66.907,18.167c20.762,0,38.246-3.9,51.967-11.592c10.389-5.826,19.08-12.914,25.83-21.066
		L659.587,921.003z M608.005,889.868c-6.879,0-12.731-1.577-17.395-4.686c-4.753-3.168-7.162-7.803-7.162-13.776
		c0-6.665,3.106-11.821,9.234-15.324c6.005-3.43,15.088-5.169,27.001-5.169c5.73,0,11.991,0.343,18.606,1.019
		c2.126,0.219,4.075,0.462,5.94,0.716l0.6,0.082l-0.159,13.838c-3.426,6.532-7.77,11.681-12.914,15.304
		C624.234,887.178,616.24,889.868,608.005,889.868z M619.683,852.291c-11.67,0-20.525,1.678-26.317,4.987
		c-5.746,3.285-8.54,7.906-8.54,14.128c0,5.561,2.142,9.692,6.548,12.63c4.433,2.955,10.029,4.454,16.631,4.454
		c7.948,0,15.672-2.605,22.958-7.745l0.003-0.001c4.92-3.467,9.094-8.401,12.405-14.667l0.07-12.145
		c-1.669-0.222-3.41-0.435-5.291-0.63C631.579,852.632,625.367,852.291,619.683,852.291z"/>
</g>
<path style="fill:#FFFFFF;" d="M763.375,929.412v-71.026h10.197v87.904h-9.142l-57.899-71.144v71.144h-10.197v-87.904h9.142
	L763.375,929.412z M821.493,885.46c18.87,0,30.005,13.01,30.005,31.177c0,18.167-11.135,31.177-30.005,31.177
	c-18.987,0-30.005-13.01-30.005-31.177C791.488,898.47,802.506,885.46,821.493,885.46z M841.77,916.637
	c0-13.127-7.736-22.152-20.276-22.152c-12.658,0-20.277,9.025-20.277,22.152s7.618,22.152,20.277,22.152
	C834.034,938.788,841.77,929.764,841.77,916.637z M861.098,940.664c0-3.985,2.813-6.915,7.032-6.915c4.102,0,7.032,2.93,7.032,6.915
	c0,4.219-2.93,7.15-7.032,7.15C863.911,947.813,861.098,944.883,861.098,940.664z M896.02,940.078l40.319-60.478h9.142v58.134
	h14.768l-1.289,8.79h-13.479v17.464h-9.611v-17.464h-39.85V940.078z M935.87,937.734v-41.491l-27.895,41.491H935.87z"/>
<g>
</g>
<g>
</g>
<g>
</g>
<g>
</g>
<g>
</g>
<g>
</g>
<g>
</g>
<g>
</g>
<g>
</g>
<g>
</g>
<g>
</g>
<g>
</g>
<g>
</g>
<g>
</g>
<g>
</g>
</svg>
